<?xml version="1.0" encoding="UTF-8" standalone="no"?>
<!-- Created with Inkscape (http://www.inkscape.org/) -->

<svg
   xmlns:dc="http://purl.org/dc/elements/1.1/"
   xmlns:cc="http://creativecommons.org/ns#"
   xmlns:rdf="http://www.w3.org/1999/02/22-rdf-syntax-ns#"
   xmlns:svg="http://www.w3.org/2000/svg"
   xmlns="http://www.w3.org/2000/svg"
   xmlns:xlink="http://www.w3.org/1999/xlink"
   xmlns:sodipodi="http://sodipodi.sourceforge.net/DTD/sodipodi-0.dtd"
   xmlns:inkscape="http://www.inkscape.org/namespaces/inkscape"
   width="210mm"
   height="297mm"
   viewBox="0 0 744.09448819 1052.3622047"
   id="svg2"
   version="1.1"
   inkscape:version="0.91 r13725"
   sodipodi:docname="missile_source.svg">
  <defs
     id="defs4">
    <linearGradient
       id="linearGradient5871"
       inkscape:collect="always">
      <stop
         id="stop5873"
         offset="0"
         style="stop-color:#ffa1a1;stop-opacity:1" />
      <stop
         style="stop-color:#ff5b5b;stop-opacity:1"
         offset="0.19826439"
         id="stop5875" />
      <stop
         style="stop-color:#c64444;stop-opacity:1"
         offset="0.81096697"
         id="stop5877" />
      <stop
         id="stop5879"
         offset="1"
         style="stop-color:#6d4545;stop-opacity:1" />
    </linearGradient>
    <linearGradient
       inkscape:collect="always"
       id="linearGradient5800">
      <stop
         style="stop-color:#feffa1;stop-opacity:1"
         offset="0"
         id="stop5802" />
      <stop
         id="stop5804"
         offset="0.19826439"
         style="stop-color:#fffb5b;stop-opacity:1" />
      <stop
         id="stop5806"
         offset="0.81096697"
         style="stop-color:#c6c444;stop-opacity:1" />
      <stop
         style="stop-color:#6d6a45;stop-opacity:1"
         offset="1"
         id="stop5808" />
    </linearGradient>
    <linearGradient
       id="linearGradient4328"
       inkscape:collect="always">
      <stop
         id="stop4330"
         offset="0"
         style="stop-color:#d0d0d0;stop-opacity:1" />
      <stop
         style="stop-color:#adadad;stop-opacity:1;"
         offset="0.19826439"
         id="stop4336" />
      <stop
         style="stop-color:#858585;stop-opacity:1;"
         offset="0.81096697"
         id="stop4334" />
      <stop
         id="stop4332"
         offset="1"
         style="stop-color:#595959;stop-opacity:1" />
    </linearGradient>
    <linearGradient
       inkscape:collect="always"
       id="linearGradient4294">
      <stop
         style="stop-color:#979797;stop-opacity:1"
         offset="0"
         id="stop4296" />
      <stop
         style="stop-color:#808080;stop-opacity:1"
         offset="1"
         id="stop4298" />
    </linearGradient>
    <linearGradient
       inkscape:collect="always"
       id="linearGradient4286">
      <stop
         style="stop-color:#6b6b6b;stop-opacity:1"
         offset="0"
         id="stop4288" />
      <stop
         style="stop-color:#bfbfbf;stop-opacity:1"
         offset="1"
         id="stop4290" />
    </linearGradient>
    <linearGradient
       inkscape:collect="always"
       id="linearGradient4278">
      <stop
         style="stop-color:#626262;stop-opacity:1"
         offset="0"
         id="stop4280" />
      <stop
         style="stop-color:#999999;stop-opacity:1"
         offset="1"
         id="stop4282" />
    </linearGradient>
    <radialGradient
       inkscape:collect="always"
       xlink:href="#linearGradient4278"
       id="radialGradient4284"
       cx="799.51185"
       cy="685.06451"
       fx="799.51185"
       fy="685.06451"
       r="140.8916"
       gradientTransform="matrix(1.0671567,0,0,0.97698409,-387.98133,57.090901)"
       gradientUnits="userSpaceOnUse" />
    <radialGradient
       inkscape:collect="always"
       xlink:href="#linearGradient4286"
       id="radialGradient4292"
       cx="799.5127"
       cy="685.06445"
       fx="799.5127"
       fy="685.06445"
       r="140.89161"
       gradientTransform="matrix(1.0135978,0,0,0.92795083,-345.16034,90.681858)"
       gradientUnits="userSpaceOnUse" />
    <radialGradient
       inkscape:collect="always"
       xlink:href="#linearGradient4294"
       id="radialGradient4300"
       cx="799.51172"
       cy="683.80652"
       fx="799.51172"
       fy="682.90094"
       r="13.13086"
       gradientTransform="matrix(2.3806922,0,0,23.946641,-1438.1684,-15727.575)"
       gradientUnits="userSpaceOnUse" />
    <radialGradient
       inkscape:collect="always"
       xlink:href="#linearGradient4328"
       id="radialGradient4326"
       cx="796.65369"
       cy="309.17764"
       fx="796.65369"
       fy="295.92084"
       r="89.901825"
       gradientTransform="matrix(2.0337293,0,0,4.8333226,-822.6865,-1306.8441)"
       gradientUnits="userSpaceOnUse" />
    <radialGradient
       inkscape:collect="always"
       xlink:href="#linearGradient5800"
       id="radialGradient4326-6"
       cx="796.65369"
       cy="309.17764"
       fx="796.65369"
       fy="295.92084"
       r="89.901825"
       gradientTransform="matrix(2.0337293,0,0,4.8333226,-822.68646,-1306.8441)"
       gradientUnits="userSpaceOnUse" />
    <radialGradient
       inkscape:collect="always"
       xlink:href="#linearGradient4328"
       id="radialGradient5841"
       cx="799.51367"
       cy="59.449219"
       fx="799.51367"
       fy="14.608607"
       r="72.322266"
       gradientTransform="matrix(1.4916907,0,0,1.9154422,-727.40226,28.614869)"
       gradientUnits="userSpaceOnUse" />
    <radialGradient
       inkscape:collect="always"
       xlink:href="#linearGradient5871"
       id="radialGradient5841-8"
       cx="799.51367"
       cy="55.980652"
       fx="799.51367"
       fy="11.140041"
       r="72.322266"
       gradientTransform="matrix(1.2700771,0,0,1.630874,-550.21928,45.532209)"
       gradientUnits="userSpaceOnUse" />
    <radialGradient
       inkscape:collect="always"
       xlink:href="#linearGradient4328"
       id="radialGradient5986"
       cx="150.34872"
       cy="220.70114"
       fx="150.34872"
       fy="220.70114"
       r="70.386742"
       gradientTransform="matrix(1.8118413,0,0,1.8287472,-136.54005,-79.470217)"
       gradientUnits="userSpaceOnUse" />
  </defs>
  <sodipodi:namedview
     id="base"
     pagecolor="#ffffff"
     bordercolor="#666666"
     borderopacity="1.0"
     inkscape:pageopacity="0.0"
     inkscape:pageshadow="2"
     inkscape:zoom="0.7"
     inkscape:cx="573.72441"
     inkscape:cy="465.3299"
     inkscape:document-units="px"
     inkscape:current-layer="layer1"
     showgrid="false"
     inkscape:object-nodes="false"
     inkscape:snap-others="false"
     inkscape:snap-nodes="false"
     inkscape:window-width="1858"
     inkscape:window-height="1058"
     inkscape:window-x="54"
     inkscape:window-y="-8"
     inkscape:window-maximized="1" />
  <metadata
     id="metadata7">
    <rdf:RDF>
      <cc:Work
         rdf:about="">
        <dc:format>image/svg+xml</dc:format>
        <dc:type
           rdf:resource="http://purl.org/dc/dcmitype/StillImage" />
        <dc:title></dc:title>
      </cc:Work>
    </rdf:RDF>
  </metadata>
  <g
     inkscape:label="Layer 1"
     inkscape:groupmode="layer"
     id="layer1">
    <g
       id="g5813"
       transform="matrix(0.97550887,0,0,0.93332376,-314.70776,87.001044)"
       inkscape:export-xdpi="22.447058"
       inkscape:export-ydpi="22.447058">
      <path
         inkscape:connector-curvature="0"
         id="path4302"
         d="m 730.31837,152.31641 c 0,0 -1.01016,29.29401 0,103.03515 1.01015,73.74113 -20.20313,319.20899 -20.20313,319.20899 l 1.01172,4.04101 88.38477,-7.23242 88.38671,7.23242 1.00977,-4.04101 c 0,0 -21.21327,-245.46786 -20.20312,-319.20899 1.01016,-73.74114 0,-103.03515 0,-103.03515 l -46.46289,0 -45.46094,0 -46.46289,0 z"
         style="fill:url(#radialGradient4326);fill-opacity:1;fill-rule:evenodd;stroke:none;stroke-width:1px;stroke-linecap:butt;stroke-linejoin:miter;stroke-opacity:1" />
      <path
         id="path4302-0"
         d="m 769.78516,152.31641 c -9.20597,18.3462 -24.24049,36.34316 -39.89649,52.00781 0.031,12.57229 0.14125,27.68985 0.36719,45.5293 26.27016,-19.74339 55.31452,-50.82313 70.53906,-97.53711 l -24.01367,0 -6.99609,0 z m 75.48046,0 c -10.34887,50.43513 -39.24817,124.5487 -118.12109,191.58007 -1.09241,19.05398 -2.38129,39.15206 -3.76953,59.40625 27.6025,-21.58562 101.00201,-81.7261 145.31445,-144.03515 0.005,-1.3107 -10e-4,-2.69725 0.0156,-3.91602 1.01016,-73.74114 0,-103.03515 0,-103.03515 l -23.43946,0 z m 25.21485,165.66015 c -38.35677,46.85095 -95.6279,109.67108 -151.31445,143.77149 -1.37084,18.20292 -2.63002,34.21989 -3.84571,49.45703 34.44826,-18.04596 107.86293,-59.06892 160.42774,-106.46094 -2.07667,-30.20947 -3.96732,-60.3645 -5.26758,-86.76758 z m 10.02148,152.33985 c -38.40015,24.44654 -114.05,70.55646 -169.27539,91.13476 -0.6708,7.97466 -1.11133,13.10938 -1.11133,13.10938 l 1.01172,4.04101 88.38477,-7.23242 17.65039,1.44336 c 24.77366,-9.27657 49.55103,-20.38394 68.83789,-33.03906 -1.5156,-18.45333 -3.4175,-42.12393 -5.49805,-69.45703 z"
         style="fill:url(#radialGradient4326-6);fill-opacity:1;fill-rule:evenodd;stroke:none;stroke-width:1px;stroke-linecap:butt;stroke-linejoin:miter;stroke-opacity:1"
         inkscape:connector-curvature="0" />
    </g>
    <path
       style="fill:url(#radialGradient4284);fill-opacity:1;fill-rule:evenodd;stroke:none;stroke-width:1px;stroke-linecap:butt;stroke-linejoin:miter;stroke-opacity:1"
       d="m 341.81953,864.03688 -26.94988,-214.01551 66.83486,-61.28219 83.51751,24.08048 83.51751,-24.08048 66.83694,61.28219 -26.94987,214.01551 -72.22692,-167.81782 15.09235,-51.85416 -66.27001,-22.4107 -66.27001,22.4107 15.09234,51.85416 -72.22482,167.81782 z"
       id="path4195"
       inkscape:connector-curvature="0"
       inkscape:export-xdpi="22.447058"
       inkscape:export-ydpi="22.447058" />
    <path
       style="fill:url(#radialGradient4292);fill-opacity:1;fill-rule:evenodd;stroke:none;stroke-width:1px;stroke-linecap:butt;stroke-linejoin:miter;stroke-opacity:1"
       d="m 381.7054,588.73913 -66.83485,61.28219 26.94988,214.01551 37.72773,-156.87678 -42.04221,-57.51061 127.71696,-36.82982 -83.51751,-24.08049 z m 83.51751,24.08049 127.71489,36.82982 -42.04222,57.51061 37.72774,156.86585 0.004,0.0109 26.94988,-214.01552 -66.83694,-61.28219 -83.51752,24.08048 z"
       id="path4234"
       inkscape:connector-curvature="0"
       inkscape:export-xdpi="22.447058"
       inkscape:export-ydpi="22.447058" />
    <path
       style="fill:url(#radialGradient4300);fill-opacity:1;fill-rule:evenodd;stroke:none;stroke-width:1px;stroke-linecap:butt;stroke-linejoin:miter;stroke-opacity:1"
       d="m 462.2278,587.42482 -11.01756,86.73714 14.01059,195.1321 0,0.0291 0.001,-0.0145 0,-0.0145 14.01269,-195.1321 -11.01965,-86.73714 -5.98817,0 z"
       id="path4213"
       inkscape:connector-curvature="0"
       inkscape:export-xdpi="22.447058"
       inkscape:export-ydpi="22.447058" />
    <path
       style="fill:url(#radialGradient5841);fill-opacity:1;fill-rule:evenodd;stroke:none;stroke-width:0.52037561px;stroke-linecap:butt;stroke-linejoin:miter;stroke-opacity:1"
       d="m 465.22117,55.811265 c -0.0405,0.06458 -0.078,0.128617 -0.11855,0.193225 -17.88182,26.794731 -29.1537,54.53449 -38.45221,82.55541 -10.37437,30.38392 -17.80146,60.03026 -28.92575,90.60167 l 0.001,0 134.99471,0 0.004,0 c -11.10919,-30.5311 -18.53229,-60.13945 -28.8852,-90.48136 -9.30592,-28.0611 -20.5839,-55.841466 -38.49049,-82.673898 -0.0409,-0.0654 -0.0794,-0.129705 -0.12033,-0.195047 -10e-4,0.0014 -0.003,0.0041 -0.004,0.0054 -0.001,-0.0014 -0.003,-0.0041 -0.004,-0.0054 z"
       id="path5817"
       inkscape:connector-curvature="0"
       inkscape:export-xdpi="22.447058"
       inkscape:export-ydpi="22.447058" />
    <path
       style="fill:url(#radialGradient5841-8);fill-opacity:1;fill-rule:evenodd;stroke:none;stroke-width:0.52037561px;stroke-linecap:butt;stroke-linejoin:miter;stroke-opacity:1"
       d="m 465.22098,55.810826 c -0.0405,0.06458 -0.0786,0.128751 -0.11914,0.193359 -10.35658,15.518659 -18.48837,31.355171 -25.31054,47.378905 27.91804,11.77261 43.09791,3.78713 49.8457,-2.36719 -6.60976,-15.215646 -14.44355,-30.256599 -24.28906,-45.009762 -0.0409,-0.0654 -0.0782,-0.12997 -0.11914,-0.195312 -9.2e-4,0.0014 -0.003,0.0046 -0.004,0.0059 -9.4e-4,-0.0014 -0.003,-0.0046 -0.004,-0.0059 z m 28.4961,54.994144 c -7.78187,7.14475 -26.253,17.88819 -57.51758,1.32812 -1.4914,3.7643 -2.92591,7.53575 -4.30273,11.31641 a 48.082768,40.540372 0 0 0 30.99023,9.54687 48.082768,40.540372 0 0 0 34.59375,-12.44922 c -1.20974,-3.25426 -2.46583,-6.5005 -3.76367,-9.74218 z"
       id="path5817-4"
       inkscape:connector-curvature="0"
       inkscape:export-xdpi="22.447058"
       inkscape:export-ydpi="22.447058" />
    <path
       style="fill:#cb0000;fill-opacity:1;fill-rule:evenodd;stroke:none;stroke-width:1px;stroke-linecap:butt;stroke-linejoin:miter;stroke-opacity:1"
       d="m -212.85715,119.50507 c -65.71428,31.42857 1.42857,30 1.42857,78.57143 0,48.57143 -25.71428,74.85714 -24.28571,100.57143 1.42857,25.71428 8.57143,58.57143 8.57143,58.57143 0,0 1.42857,-42.85715 10,-70 8.57143,-27.14286 12.85714,-52 30,-54.85715 17.14285,-2.85714 14.28571,34.28572 14.28571,34.28572 0,0 22.85714,-32.85715 15.71429,-55.71429 8.57143,-11.42857 34.28571,74.28572 31.42857,97.14286 24.28572,-42.85714 17.14286,-124.28572 -2.85714,-142.85714 -20,-18.57143 -18.57143,-51.42859 -18.57143,-51.42859 0,-7.08394 -55.71429,-3.17342 -65.71429,5.7143 z"
       id="path5909"
       inkscape:connector-curvature="0"
       sodipodi:nodetypes="csscsscccscc"
       inkscape:export-xdpi="26.402565"
       inkscape:export-ydpi="26.402565" />
    <path
       style="fill:#feaf00;fill-opacity:1;fill-rule:evenodd;stroke:none;stroke-width:1px;stroke-linecap:butt;stroke-linejoin:miter;stroke-opacity:1"
       d="m -162.77288,110.13867 c -17.27143,-0.15505 -43.52149,3.53463 -50.08399,9.3672 -51.37905,24.57259 -21.54423,29.05964 -6.08203,53.0625 14.08653,11.21191 17.50977,21.80125 17.50977,38.36523 25.71429,2.85715 30.00027,-2.8e-4 32.85742,17.14258 -1.42857,-51.42857 12.85742,-44.28515 12.85742,-44.28515 0,0 24.31622,18.79526 31.13867,34.98828 -15.81778,-58.04167 -21.48109,-41.77846 -31.13867,-72.13086 -3.75403,-11.79838 -4.68851,-24.80459 -4.39258,-36.44923 -0.86318,-0.0302 -1.74777,-0.0523 -2.66601,-0.0606 z m 38.19726,108.64064 c 0.56083,2.05791 1.13175,4.18928 1.71875,6.43945 -0.17177,-2.06128 -0.78629,-4.22627 -1.71875,-6.43945 z"
       id="path5911"
       inkscape:connector-curvature="0"
       inkscape:export-xdpi="26.402565"
       inkscape:export-ydpi="26.402565" />
    <path
       style="fill:#f0ff01;fill-opacity:1;fill-rule:evenodd;stroke:none;stroke-width:1px;stroke-linecap:butt;stroke-linejoin:miter;stroke-opacity:1"
       d="m -177.87249,110.80273 c -14.71001,1.29636 -30.16185,4.41702 -34.98438,8.70314 -7.3798,3.52947 -13.03562,6.63507 -17.34765,9.45312 34.85491,29.44195 37.34765,59.11719 37.34765,59.11719 0,0 2.85659,-11.42745 14.28516,-18.57031 11.42857,-7.14286 18.57226,2.85547 18.57226,2.85547 0,0 -12.67057,-36.32956 -17.87304,-61.55861 z"
       id="path5929"
       inkscape:connector-curvature="0"
       inkscape:export-xdpi="26.402565"
       inkscape:export-ydpi="26.402565" />
    <path
       style="fill:#cb0000;fill-opacity:1;fill-rule:evenodd;stroke:none;stroke-width:1px;stroke-linecap:butt;stroke-linejoin:miter;stroke-opacity:1"
       d="m -219.70171,395.33356 c -65.71428,31.42857 1.42857,30 1.42857,78.57143 0,48.57142 -7.14285,63.42856 -5.71428,89.14285 1.42857,25.71428 -35.71429,54.28571 -35.71429,54.28571 0,0 40,-22.85715 48.57143,-50 8.57143,-27.14286 17.67212,-76.51413 17.14286,-59.14286 -1.14225,37.49045 10.14457,41.83671 20,50.00001 l 10,-71.42858 c 2.40924,-9.88801 43.89293,76.52677 50,97.14286 1.42858,-50 -14.28571,-104.28571 -21.42857,-142.85713 -4.96973,-26.83654 -18.57143,-51.42859 -18.57143,-51.42859 0,-7.08394 -55.71429,-3.17342 -65.71429,5.7143 z"
       id="path5909-0"
       inkscape:connector-curvature="0"
       sodipodi:nodetypes="csscsscccscc"
       inkscape:export-xdpi="26.402565"
       inkscape:export-ydpi="26.402565" />
    <path
       style="fill:#feaf00;fill-opacity:1;fill-rule:evenodd;stroke:none;stroke-width:1px;stroke-linecap:butt;stroke-linejoin:miter;stroke-opacity:1"
       d="m -169.61744,385.96716 c -17.27143,-0.15505 -43.52149,3.53463 -50.08399,9.3672 -51.37905,24.57259 -21.54423,29.05964 -6.08203,53.0625 14.08653,11.21191 17.50977,21.80125 17.50977,38.36522 16.30418,-25.37319 23.56354,19.26097 27.14313,38.57115 -1.42857,-51.42856 18.57171,-65.71371 18.57171,-65.71371 0,0 24.31622,18.79526 31.13867,34.98827 -15.81778,-58.04166 -5.7668,-40.34988 -15.42438,-70.70228 -3.75403,-11.79838 -20.4028,-26.23316 -20.10687,-37.8778 -0.86318,-0.0302 -1.74777,-0.0523 -2.66601,-0.0606 z m 38.19726,108.64063 c 0.56083,2.05791 1.13175,4.18928 1.71875,6.43945 -0.17177,-2.06128 -0.78629,-4.22627 -1.71875,-6.43945 z"
       id="path5911-3"
       inkscape:connector-curvature="0"
       sodipodi:nodetypes="cccccccscccccc"
       inkscape:export-xdpi="26.402565"
       inkscape:export-ydpi="26.402565" />
    <path
       style="fill:#f0ff01;fill-opacity:1;fill-rule:evenodd;stroke:none;stroke-width:1px;stroke-linecap:butt;stroke-linejoin:miter;stroke-opacity:1"
       d="m -184.71705,386.63122 c -14.71001,1.29636 -30.16185,4.41702 -34.98438,8.70314 -7.3798,3.52947 -13.03562,6.63507 -17.34765,9.45312 34.85491,29.44195 37.34765,59.11719 37.34765,59.11719 0,0 1.42802,-1.42745 12.85659,-8.57031 11.42857,-7.14286 20.00083,-7.14453 20.00083,-7.14453 0,0 -12.67057,-36.32956 -17.87304,-61.55861 z"
       id="path5929-1"
       inkscape:connector-curvature="0"
       sodipodi:nodetypes="ccccscc"
       inkscape:export-xdpi="26.402565"
       inkscape:export-ydpi="26.402565" />
    <path
       style="fill:#cb0000;fill-opacity:1;fill-rule:evenodd;stroke:none;stroke-width:1px;stroke-linecap:butt;stroke-linejoin:miter;stroke-opacity:1"
       d="m -211.13028,699.61928 c -65.71428,31.42857 1.42857,30 1.42857,78.57143 0,48.57142 -22.85714,56.2857 -21.42857,81.99999 1.42857,25.71428 -8.57142,85.71429 -8.57142,85.71429 0,0 11.42857,-37.14287 20,-64.28572 8.57143,-27.14286 27.60136,-85.18532 34.28571,-69.14286 14.28571,34.28572 14.28571,61.42858 14.28571,61.42858 0,0 0,-27.14286 15.71429,-82.85715 8.57143,-11.42856 25.71427,58.57143 71.42856,68.57143 -24.2857,-37.14285 -24.28571,-91.42857 -44.28571,-109.99999 -19.99999,-18.57143 -17.14285,-55.7143 -17.14285,-55.7143 0,-7.08394 -55.71429,-3.17342 -65.71429,5.7143 z"
       id="path5909-1"
       inkscape:connector-curvature="0"
       sodipodi:nodetypes="csscsscccscc"
       inkscape:export-xdpi="26.402565"
       inkscape:export-ydpi="26.402565" />
    <path
       style="fill:#feaf00;fill-opacity:1;fill-rule:evenodd;stroke:none;stroke-width:1px;stroke-linecap:butt;stroke-linejoin:miter;stroke-opacity:1"
       d="m -161.04601,690.25288 c -17.27143,-0.15505 -43.52149,3.53463 -50.08399,9.3672 -51.37905,24.57259 -21.54423,29.05964 -6.08203,53.0625 14.08653,11.21191 17.50977,31.80125 17.50977,48.36522 0,0 24.28598,-2.8e-4 27.14313,17.14258 14.28572,-42.85713 18.57171,-54.28514 18.57171,-54.28514 0,0 68.601924,114.50955 31.13866,34.98827 -15.81778,-58.04166 -21.48108,-41.77845 -31.13866,-72.13085 -3.75403,-11.79838 -4.68851,-24.80459 -4.39258,-36.44923 -0.86318,-0.0302 -1.74777,-0.0523 -2.66601,-0.0606 z"
       id="path5911-4"
       inkscape:connector-curvature="0"
       sodipodi:nodetypes="cccccccsccc"
       inkscape:export-xdpi="26.402565"
       inkscape:export-ydpi="26.402565" />
    <path
       style="fill:#f0ff01;fill-opacity:1;fill-rule:evenodd;stroke:none;stroke-width:1px;stroke-linecap:butt;stroke-linejoin:miter;stroke-opacity:1"
       d="m -176.14562,690.91694 c -14.71001,1.29636 -30.16185,4.41702 -34.98438,8.70314 -7.3798,3.52947 -13.03562,6.63507 -17.34765,9.45312 34.85491,29.44195 37.34765,59.11719 37.34765,59.11719 0,0 2.85659,-4.28459 14.28516,-11.42745 11.42857,-7.14286 18.57226,-4.28739 18.57226,-4.28739 0,0 -12.67057,-36.32956 -17.87304,-61.55861 z"
       id="path5929-0"
       inkscape:connector-curvature="0"
       sodipodi:nodetypes="ccccscc"
       inkscape:export-xdpi="26.402565"
       inkscape:export-ydpi="26.402565" />
    <path
       style="opacity:0.33800001;fill:url(#radialGradient5986);fill-opacity:1;fill-rule:evenodd;stroke:none;stroke-width:1px;stroke-linecap:butt;stroke-linejoin:miter;stroke-opacity:1"
       d="m 127.14281,305.21934 c -88.571396,12.85715 -38.571396,50 -28.5714,52.85715 10,2.85714 -7.1428,38.57142 -7.1428,38.57142 0,0 34.2857,57.14286 64.2857,37.14286 30,-20 55.7143,-25.71428 55.7143,-25.71428 0,0 20,-42.85715 -21.4286,-47.14286 -41.4286,-4.28572 -5.7143,-28.57143 -5.7143,-28.57143 0,0 -34.2857,-58.57143 -57.1429,-27.14286 z"
       id="path5978"
       inkscape:connector-curvature="0"
       inkscape:export-xdpi="20.458401"
       inkscape:export-ydpi="20.458401" />
  </g>
</svg>
